<svg xmlns="http://www.w3.org/2000/svg" xmlns:xlink="http://www.w3.org/1999/xlink" version="1.1" width="300" height="300" viewBox="0 0 300 300" xml:space="preserve">
<desc>Created with Fabric.js 3.5.0</desc>
<defs>
</defs>
<rect x="0" y="0" width="100%" height="100%" fill="rgba(255,255,255,0)"/>
<g transform="matrix(3.5769 0 0 3.5769 149.9994 149.9994)" id="413928">
<g style="" vector-effect="non-scaling-stroke">
		<g transform="matrix(1 0 0 1 0 0)" id="Layer_1">
<path style="stroke: none; stroke-width: 1; stroke-dasharray: none; stroke-linecap: butt; stroke-dashoffset: 0; stroke-linejoin: miter; stroke-miterlimit: 4; is-custom-font: none; font-file-url: none; fill: rgb(0,0,0); fill-rule: nonzero; opacity: 1;" transform=" translate(-26, -26)" d="M 48.636322 18.6799927 v 18 h -7.1867676 c -0.4133301 -1.159668 -1.5100098 -2 -2.8158569 -2 c -0.3178101 0 -0.6187134 0.0634766 -0.9067993 0.1561279 l -3.6211548 -6.1843262 l 3.0296021 -1.5328369 l -1.7581177 -3.4745483 l 7.5864868 -3.9644165 L 34.9236755 3.3200073 L 1.363678 20.8599854 l 9.8800049 4.539978 l 4.2399902 8.6400146 l 11.0731812 -5.786438 l 1.6390381 3.3883667 l 4.1220703 -2.0855713 l 3.8040771 6.4967651 c -0.3061523 0.4699707 -0.4883423 1.0273438 -0.4883423 1.6268921 c 0 1.6500244 1.3499756 3 3 3 c 1.3058472 0 2.4025269 -0.840332 2.8158569 -2 h 7.1867676 v 10 h 2 v -30 H 48.636322 z" stroke-linecap="round"/>
</g>
		<g transform="matrix(1 0 0 1 -17.2492 3.2594)" id="Layer_1">
<polygon style="stroke: none; stroke-width: 1; stroke-dasharray: none; stroke-linecap: butt; stroke-dashoffset: 0; stroke-linejoin: miter; stroke-miterlimit: 4; is-custom-font: none; font-file-url: none; fill: rgb(51,166,37); fill-rule: nonzero; opacity: 1;" points="-3.6203,-4.4675 0.7693,4.4675 3.6203,2.9777 1.011,-2.3397 "/>
</g>
</g>
</g>
</svg>