<?xml version="1.0" encoding="iso-8859-1"?>
<!-- Generator: Adobe Illustrator 18.0.0, SVG Export Plug-In . SVG Version: 6.00 Build 0)  -->
<!DOCTYPE svg PUBLIC "-//W3C//DTD SVG 1.1//EN" "http://www.w3.org/Graphics/SVG/1.1/DTD/svg11.dtd">
<svg version="1.1" id="Capa_1" xmlns="http://www.w3.org/2000/svg" xmlns:xlink="http://www.w3.org/1999/xlink" x="0px" y="0px"
	 viewBox="0 0 474.469 474.469" style="enable-background:new 0 0 474.469 474.469;" xml:space="preserve">
<g>
	<path d="M158.363,194.743c14.228,33.979,45.054,56.305,78.872,56.305c33.816,0,64.645-22.318,78.87-56.305
		c14.505-3.33,26.974-17.248,30.935-35.498c2.374-10.866,1.495-21.909-2.513-31.097c-4.039-9.279-11.113-15.776-19.559-18.604
		l5.055-1.58c8.323-2.596,12.964-11.445,10.357-19.768c-2.588-8.324-11.514-12.971-19.76-10.366l-0.093,0.031
		c-1.202-21.24-9.987-40.453-24.106-54.563v28.776c0,6.536-5.303,11.838-11.837,11.838c-6.536,0-11.838-5.302-11.838-11.838V6.967
		C265.379,3.491,257.441,1.195,249.073,0v36.291c0,6.536-5.304,11.837-11.838,11.837c-6.536,0-11.838-5.302-11.838-11.837V0
		c-8.37,1.195-16.308,3.491-23.676,6.967v45.107c0,6.536-5.303,11.838-11.837,11.838c-6.536,0-11.838-5.302-11.838-11.838V23.298
		c-14.12,14.11-22.905,33.324-24.107,54.563l-0.092-0.031c-8.309-2.62-17.187,2.034-19.761,10.366
		c-2.604,8.323,2.034,17.171,10.358,19.768l5.056,1.572c-8.447,2.836-15.521,9.325-19.561,18.612
		c-4.008,9.188-4.887,20.231-2.513,31.09C131.405,177.495,143.874,191.405,158.363,194.743z M187.187,121.304
		c16.368,5.111,33.216,7.661,50.048,7.661c16.831,0,33.677-2.55,50.048-7.661l5.965-1.864c0.954,2.126,1.973,4.208,2.774,6.465
		c1.125,3.213,3.575,5.78,6.734,7.052c3.16,1.272,6.705,1.118,9.758-0.409c1.311-0.669,2.651-1.048,4.5-0.917
		c3.098,0.671,4.964,4.015,5.812,5.95c1.988,4.593,2.39,10.651,1.079,16.623c-2.357,10.897-9.263,18.326-15.059,17.594
		c-5.442-0.493-10.683,2.798-12.439,8.062c-9.402,28.415-33.186,47.511-59.172,47.511c-26.404,0-49.633-18.649-59.174-47.511
		c-1.618-4.887-6.658-8.092-11.776-8.092c-0.415,0-0.832,0.016-1.232,0.062c-5.134,0-12.13-6.743-14.504-17.642
		c-1.296-5.956-0.895-12.014,1.094-16.607c0.848-1.935,2.713-5.279,6.721-6.05c1.048,0,2.297,0.354,3.622,1.024
		c3.067,1.534,6.612,1.681,9.742,0.393c3.159-1.27,5.609-3.837,6.734-7.044c0.802-2.257,1.805-4.331,2.775-6.457L187.187,121.304z"
		/>
	<path d="M237.235,302.344c-22.196,0-41.895-11.097-55.613-28.444H174.1v84.505h126.269V273.9h-7.492
		C279.129,291.247,259.429,302.344,237.235,302.344z"/>
	<path d="M331.936,279.88v155.607c0,8.716-7.061,15.784-15.784,15.784c-8.725,0-15.783-7.068-15.783-15.784v-45.517H174.1v45.517
		c0,8.716-7.06,15.784-15.783,15.784c-8.725,0-15.783-7.068-15.783-15.784V279.88c-28.917,11.861-49.324,40.221-49.324,73.407
		v121.182h288.05V353.287C381.259,320.095,360.851,291.733,331.936,279.88z"/>
</g>
<g>
</g>
<g>
</g>
<g>
</g>
<g>
</g>
<g>
</g>
<g>
</g>
<g>
</g>
<g>
</g>
<g>
</g>
<g>
</g>
<g>
</g>
<g>
</g>
<g>
</g>
<g>
</g>
<g>
</g>
</svg>
