<?xml version="1.0" standalone="yes"?>
<svg xmlns="http://www.w3.org/2000/svg" width="920" height="426">
<path style="fill:#f3f3f3; stroke:none;" d="M0 0L0 426L920 426L920 0L0 0z"/>
<path style="fill:#e96d71; stroke:none;" d="M692 62L693 63L692 62z"/>
<path style="fill:#bdb9cb; stroke:none;" d="M693 62L694 63L693 62M690 63L691 64L690 63z"/>
<path style="fill:#eb1921; stroke:none;" d="M691 63C656.86 87.8022 608.769 100.425 566.996 101.964C553.074 102.477 538.864 102.17 525 100.83C518.71 100.223 510.14 96.9075 504 98.5247C493.549 101.277 482.898 112.038 474 117.999C467.368 122.443 457.179 127.093 453 134L543 127.725L632 105L632 106C596.235 116.224 563.122 130.516 526 136.715C507.581 139.79 488.649 142.144 470 142.961C459.542 143.419 446.029 141.551 436 144.513C423.939 148.075 410.316 160.904 400 168.144C392.727 173.248 380.658 178.378 376 186C461.232 182.606 551.683 157.553 625 113.799C642.482 103.367 659.333 91.9469 675 78.919C679.792 74.9344 689.483 69.1827 691 63z"/>
<path style="fill:#bdb9cb; stroke:none;" d="M688 64L689 65L688 64z"/>
<path style="fill:#e96d71; stroke:none;" d="M689 64L690 65L689 64M691 64L692 65L691 64M687 65L688 66L687 65z"/>
<path style="fill:#bdb9cb; stroke:none;" d="M690 65L691 66L690 65M685 66L686 67L685 66M689 66L690 67L689 66z"/>
<path style="fill:#e96d71; stroke:none;" d="M684 67L685 68L684 67M682 68L683 69L682 68M680 69L681 70L680 69M685 69L686 70L685 69M679 70L680 71L679 70M684 70L685 71L684 70M677 71L678 72L677 71M683 71L684 72L683 71M675 72L676 73L675 72M682 72L683 73L682 72M673 73L674 74L673 73M681 73L682 74L681 73M671 74L672 75L671 74M669 75L670 76L669 75z"/>
<path style="fill:#bdb9cb; stroke:none;" d="M666 76L667 77L666 76z"/>
<path style="fill:#e96d71; stroke:none;" d="M667 76L668 77L667 76M677 76L678 77L677 76z"/>
<path style="fill:#bdb9cb; stroke:none;" d="M664 77L665 78L664 77z"/>
<path style="fill:#e96d71; stroke:none;" d="M665 77L666 78L665 77M676 77L677 78L676 77M675 78L676 79L675 78z"/>
<path style="fill:#bdb9cb; stroke:none;" d="M660 79L661 80L660 79z"/>
<path style="fill:#e96d71; stroke:none;" d="M661 79L662 80L661 79z"/>
<path style="fill:#bdb9cb; stroke:none;" d="M674 79L675 80L674 79M657 80L658 81L657 80z"/>
<path style="fill:#e96d71; stroke:none;" d="M658 80L659 81L658 80M656 81L657 82L656 81M671 81L672 82L671 81M653 82L654 83L653 82M670 82L671 83L670 82M651 83L652 84L651 83z"/>
<path style="fill:#bdb9cb; stroke:none;" d="M669 83L670 84L669 83z"/>
<path style="fill:#e96d71; stroke:none;" d="M648.667 84.3333L649.333 84.6667L648.667 84.3333M645.667 85.3333L646.333 85.6667L645.667 85.3333M666 85L667 86L666 85z"/>
<path style="fill:#bdb9cb; stroke:none;" d="M642 86L643 87L642 86z"/>
<path style="fill:#e96d71; stroke:none;" d="M643 86L644 87L643 86M665 86L666 87L665 86M640 87L641 88L640 87M636.667 88.3333L637.333 88.6667L636.667 88.3333M662 88L663 89L662 88M633.667 89.3333L634.333 89.6667L633.667 89.3333M661 89L662 90L661 89M631 90L632 91L631 90M627.667 91.3333L628.333 91.6667L627.667 91.3333M658 91L659 92L658 91z"/>
<path style="fill:#bdb9cb; stroke:none;" d="M622 92L623 93L622 92z"/>
<path style="fill:#e96d71; stroke:none;" d="M623.667 92.3333L624.333 92.6667L623.667 92.3333M657 92L658 93L657 92z"/>
<path style="fill:#bdb9cb; stroke:none;" d="M619 93L620 94L619 93z"/>
<path style="fill:#e96d71; stroke:none;" d="M620.667 93.3333L621.333 93.6667L620.667 93.3333z"/>
<path style="fill:#bdb9cb; stroke:none;" d="M656 93L657 94L656 93M615 94L616 95L615 94z"/>
<path style="fill:#e96d71; stroke:none;" d="M616 94L617 95L616 94M654 94L655 95L654 94z"/>
<path style="fill:#bdb9cb; stroke:none;" d="M655 94L656 95L655 94z"/>
<path style="fill:#e96d71; stroke:none;" d="M612 95L613 96L612 95z"/>
<path style="fill:#bdb9cb; stroke:none;" d="M653 95L654 96L653 95z"/>
<path style="fill:#e96d71; stroke:none;" d="M606 96L606 97L609 97L606 96z"/>
<path style="fill:#bdb9cb; stroke:none;" d="M503 97L504 98L503 97z"/>
<path style="fill:#e96d71; stroke:none;" d="M504.667 97.3333L505.333 97.6667L504.667 97.3333z"/>
<path style="fill:#bdb9cb; stroke:none;" d="M506 97L507 98L506 97M600 97L601 98L600 97z"/>
<path style="fill:#e96d71; stroke:none;" d="M601 97L601 98L604 98L601 97M650 97L651 98L650 97M502 98L503 99L502 98M509.667 98.3333L510.333 98.6667L509.667 98.3333z"/>
<path style="fill:#bdb9cb; stroke:none;" d="M595 98L596 99L595 98z"/>
<path style="fill:#e96d71; stroke:none;" d="M596 98L597 99L596 98M648 98L649 99L648 98z"/>
<path style="fill:#bdb9cb; stroke:none;" d="M649 98L650 99L649 98z"/>
<path style="fill:#e96d71; stroke:none;" d="M501 99L502 100L501 99M514 99L514 100L517 100L514 99z"/>
<path style="fill:#bdb9cb; stroke:none;" d="M517 99L518 100L517 99M588.667 99.3333L589.333 99.6667L588.667 99.3333z"/>
<path style="fill:#e96d71; stroke:none;" d="M590.667 99.3333L591.333 99.6667L590.667 99.3333M647 99L648 100L647 99M499 100L500 101L499 100M522 100L522 101L529 101L522 100z"/>
<path style="fill:#bdb9cb; stroke:none;" d="M529.667 100.333L530.333 100.667L529.667 100.333M576.667 100.333L577.333 100.667L576.667 100.333z"/>
<path style="fill:#e96d71; stroke:none;" d="M578 100L578 101L584 101L578 100M498 101L499 102L498 101M533 101L534 102L533 101M535 101L536 102L535 101M537 101L537 102L540 102L537 101z"/>
<path style="fill:#bdb9cb; stroke:none;" d="M540 101L540 102L543 102L540 101M563.667 101.333L564.333 101.667L563.667 101.333z"/>
<path style="fill:#e96d71; stroke:none;" d="M565 101L566 102L565 101z"/>
<path style="fill:#bdb9cb; stroke:none;" d="M566 101L567 102L566 101z"/>
<path style="fill:#e96d71; stroke:none;" d="M567 101L567 102L572 102L567 101M573 101L574 102L573 101M575 101L576 102L575 101M644 101L645 102L644 101z"/>
<path style="fill:#bdb9cb; stroke:none;" d="M496 102L497 103L496 102M643 102L644 103L643 102z"/>
<path style="fill:#e96d71; stroke:none;" d="M495 103L496 104L495 103M641 103L642 104L641 103z"/>
<path style="fill:#bdb9cb; stroke:none;" d="M493 104L494 105L493 104z"/>
<path style="fill:#e96d71; stroke:none;" d="M632.667 104.333L633.333 104.667L632.667 104.333M492 105L493 106L492 105M627 108L632 106L627 108M638 105L639 106L638 105z"/>
<path style="fill:#bdb9cb; stroke:none;" d="M490 106L491 107L490 106z"/>
<path style="fill:#e96d71; stroke:none;" d="M636 106L637 107L636 106z"/>
<path style="fill:#bdb9cb; stroke:none;" d="M637 106L638 107L637 106z"/>
<path style="fill:#e96d71; stroke:none;" d="M489 107L490 108L489 107M624 107L624 109L626 109L624 107z"/>
<path style="fill:#f3f3f3; stroke:none;" d="M625.667 107.333L626.333 107.667L625.667 107.333z"/>
<path style="fill:#e96d71; stroke:none;" d="M635 107L636 108L635 107z"/>
<path style="fill:#bdb9cb; stroke:none;" d="M487 108L488 109L487 108z"/>
<path style="fill:#e96d71; stroke:none;" d="M621 108L623 110L621 108z"/>
<path style="fill:#bdb9cb; stroke:none;" d="M622 108L623 109L622 108z"/>
<path style="fill:#f3f3f3; stroke:none;" d="M623 108L624 109L623 108z"/>
<path style="fill:#e96d71; stroke:none;" d="M633 108L634 109L633 108M486 109L487 110L486 109M618.667 109.333L619.333 109.667L618.667 109.333z"/>
<path style="fill:#f3f3f3; stroke:none;" d="M620 109L621 110L620 109z"/>
<path style="fill:#bdb9cb; stroke:none;" d="M621 109L622 110L621 109M632 109L633 110L632 109M484 110L485 111L484 110z"/>
<path style="fill:#e96d71; stroke:none;" d="M616 110L618 112L616 110z"/>
<path style="fill:#f3f3f3; stroke:none;" d="M617.667 110.333L618.333 110.667L617.667 110.333z"/>
<path style="fill:#bdb9cb; stroke:none;" d="M619 110L620 111L619 110z"/>
<path style="fill:#e96d71; stroke:none;" d="M630 110L631 111L630 110M483 111L484 112L483 111M612 111L612 112L615 113L612 111z"/>
<path style="fill:#f3f3f3; stroke:none;" d="M614 111L614 112L617 112L614 111z"/>
<path style="fill:#e96d71; stroke:none;" d="M628 111L629 112L628 111z"/>
<path style="fill:#bdb9cb; stroke:none;" d="M481 112L482 113L481 112M610 112L611 113L610 112z"/>
<path style="fill:#f3f3f3; stroke:none;" d="M608 113L608 114L613 113L608 113z"/>
<path style="fill:#bdb9cb; stroke:none;" d="M613 112L614 113L613 112M627 112L628 113L627 112z"/>
<path style="fill:#e96d71; stroke:none;" d="M480 113L481 114L480 113M606.667 113.333L607.333 113.667L606.667 113.333M611 113L612 114L611 113M625 113L626 114L625 113M479 114L480 115L479 114M602 114L602 115L605 115L602 114z"/>
<path style="fill:#bdb9cb; stroke:none;" d="M608 114L609 115L608 114z"/>
<path style="fill:#e96d71; stroke:none;" d="M609 114L610 115L609 114M623 114L624 115L623 114M477 115L478 116L477 115M599 115L600 116L599 115z"/>
<path style="fill:#bdb9cb; stroke:none;" d="M600 115L601 116L600 115z"/>
<path style="fill:#e96d71; stroke:none;" d="M606 115L607 116L606 115M476 116L477 117L476 116M596 116L597 117L596 116z"/>
<path style="fill:#bdb9cb; stroke:none;" d="M602 116L603 117L602 116z"/>
<path style="fill:#e96d71; stroke:none;" d="M603.667 116.333L604.333 116.667L603.667 116.333M620 116L621 117L620 116M474 117L475 118L474 117M592.667 117.333L593.333 117.667L592.667 117.333M600.667 117.333L601.333 117.667L600.667 117.333M618 117L619 118L618 117M473 118L474 119L473 118M588.667 118.333L589.333 118.667L588.667 118.333z"/>
<path style="fill:#bdb9cb; stroke:none;" d="M597 118L598 119L597 118z"/>
<path style="fill:#e96d71; stroke:none;" d="M616 118L617 119L616 118M584 119L585 120L584 119z"/>
<path style="fill:#bdb9cb; stroke:none;" d="M585 119L586 120L585 119z"/>
<path style="fill:#e96d71; stroke:none;" d="M595 119L596 120L595 119z"/>
<path style="fill:#bdb9cb; stroke:none;" d="M615 119L616 120L615 119M469 120L470 121L469 120z"/>
<path style="fill:#e96d71; stroke:none;" d="M470 120L471 121L470 120M580 120L581 121L580 120z"/>
<path style="fill:#bdb9cb; stroke:none;" d="M581 120L582 121L581 120M590 120L591 121L590 120z"/>
<path style="fill:#e96d71; stroke:none;" d="M591.667 120.333L592.333 120.667L591.667 120.333z"/>
<path style="fill:#bdb9cb; stroke:none;" d="M613 120L614 121L613 120z"/>
<path style="fill:#e96d71; stroke:none;" d="M468 121L469 122L468 121M575.667 121.333L576.333 121.667L575.667 121.333z"/>
<path style="fill:#bdb9cb; stroke:none;" d="M577 121L578 122L577 121z"/>
<path style="fill:#e96d71; stroke:none;" d="M588 121L589 122L588 121M611 121L612 122L611 121M467 122L468 123L467 122M571 122L571 123L574 123L571 122M585 122L586 123L585 122M609 122L610 123L609 122z"/>
<path style="fill:#bdb9cb; stroke:none;" d="M465 123L466 124L465 123z"/>
<path style="fill:#e96d71; stroke:none;" d="M566 123L567 124L566 123z"/>
<path style="fill:#bdb9cb; stroke:none;" d="M567.667 123.333L568.333 123.667L567.667 123.333z"/>
<path style="fill:#e96d71; stroke:none;" d="M582 123L583 124L582 123M607 123L608 124L607 123M464 124L465 125L464 124M562 124L563 125L562 124z"/>
<path style="fill:#bdb9cb; stroke:none;" d="M577 124L578 125L577 124z"/>
<path style="fill:#e96d71; stroke:none;" d="M578.667 124.333L579.333 124.667L578.667 124.333M605 124L606 125L605 124z"/>
<path style="fill:#bdb9cb; stroke:none;" d="M462 125L463 126L462 125z"/>
<path style="fill:#e96d71; stroke:none;" d="M463 125L464 126L463 125M556 125L556 126L559 126L556 125z"/>
<path style="fill:#bdb9cb; stroke:none;" d="M574 125L575 126L574 125z"/>
<path style="fill:#e96d71; stroke:none;" d="M575.667 125.333L576.333 125.667L575.667 125.333z"/>
<path style="fill:#bdb9cb; stroke:none;" d="M604 125L605 126L604 125z"/>
<path style="fill:#e96d71; stroke:none;" d="M461 126L462 127L461 126M549 126L549 127L552 127L549 126z"/>
<path style="fill:#bdb9cb; stroke:none;" d="M552 126L553 127L552 126z"/>
<path style="fill:#e96d71; stroke:none;" d="M571.667 126.333L572.333 126.667L571.667 126.333M601 126L602 127L601 126z"/>
<path style="fill:#bdb9cb; stroke:none;" d="M602 126L603 127L602 126z"/>
<path style="fill:#e96d71; stroke:none;" d="M544 127L545 128L544 127z"/>
<path style="fill:#bdb9cb; stroke:none;" d="M545 127L546 128L545 127M566.667 127.333L567.333 127.667L566.667 127.333z"/>
<path style="fill:#e96d71; stroke:none;" d="M568 127L569 128L568 127M458 128L459 129L458 128M537 128L537 129L540 129L537 128z"/>
<path style="fill:#bdb9cb; stroke:none;" d="M561.667 128.333L562.333 128.667L561.667 128.333z"/>
<path style="fill:#e96d71; stroke:none;" d="M563.667 128.333L564.333 128.667L563.667 128.333z"/>
<path style="fill:#bdb9cb; stroke:none;" d="M598 128L599 129L598 128M456 129L457 130L456 129z"/>
<path style="fill:#e96d71; stroke:none;" d="M457 129L458 130L457 129M528 129L529 130L528 129M530 129L530 130L533 130L530 129z"/>
<path style="fill:#bdb9cb; stroke:none;" d="M533.667 129.333L534.333 129.667L533.667 129.333M558 129L559 130L558 129z"/>
<path style="fill:#e96d71; stroke:none;" d="M559.667 129.333L560.333 129.667L559.667 129.333z"/>
<path style="fill:#bdb9cb; stroke:none;" d="M596 129L597 130L596 129M455 130L456 131L455 130z"/>
<path style="fill:#e96d71; stroke:none;" d="M520 130L520 131L525 131L520 130z"/>
<path style="fill:#bdb9cb; stroke:none;" d="M525 130L525 131L528 131L525 130M555 130L556 131L555 130z"/>
<path style="fill:#e96d71; stroke:none;" d="M593 130L594 131L593 130z"/>
<path style="fill:#bdb9cb; stroke:none;" d="M594 130L595 131L594 130z"/>
<path style="fill:#e96d71; stroke:none;" d="M454 131L455 132L454 131M511 131L511 132L514 132L511 131z"/>
<path style="fill:#bdb9cb; stroke:none;" d="M514 131L515 132L514 131M550 131L551 132L550 131z"/>
<path style="fill:#e96d71; stroke:none;" d="M551.667 131.333L552.333 131.667L551.667 131.333M591 131L592 132L591 131M452.333 132.667L452.667 133.333L452.333 132.667M497 132L498 133L497 132M499 132L499 133L502 133L499 132z"/>
<path style="fill:#bdb9cb; stroke:none;" d="M502.667 132.333L503.333 132.667L502.667 132.333M544 132L545 133L544 132z"/>
<path style="fill:#e96d71; stroke:none;" d="M545 132L545 133L548 133L545 132M589 132L590 133L589 132M454.667 133.333L455.333 133.667L454.667 133.333M457 133L458 134L457 133M459 133L460 134L459 133M461 133L462 134L461 133M463 133L464 134L463 133M465 133L466 134L465 133M467 133L468 134L467 133M469 133L470 134L469 133M471 133L472 134L471 133M473 133L474 134L473 133M475 133L476 134L475 133M477 133L478 134L477 133M479 133L480 134L479 133M481 133L481 134L487 134L481 133z"/>
<path style="fill:#bdb9cb; stroke:none;" d="M487 133L487 134L490 134L487 133M540 133L541 134L540 133z"/>
<path style="fill:#e96d71; stroke:none;" d="M541.667 133.333L542.333 133.667L541.667 133.333M587 133L588 134L587 133z"/>
<path style="fill:#bdb9cb; stroke:none;" d="M588 133L589 134L588 133M535 134L536 135L535 134z"/>
<path style="fill:#e96d71; stroke:none;" d="M536.667 134.333L537.333 134.667L536.667 134.333M585 134L586 135L585 134z"/>
<path style="fill:#bdb9cb; stroke:none;" d="M586 134L587 135L586 134M530 135L531 136L530 135z"/>
<path style="fill:#e96d71; stroke:none;" d="M531 135L532 136L531 135M583 135L584 136L583 135z"/>
<path style="fill:#bdb9cb; stroke:none;" d="M523 136L524 137L523 136z"/>
<path style="fill:#e96d71; stroke:none;" d="M524 136L524 137L528 137L524 136M581 136L582 137L581 136z"/>
<path style="fill:#bdb9cb; stroke:none;" d="M516 137L517 138L516 137z"/>
<path style="fill:#e96d71; stroke:none;" d="M517 137L517 138L521 138L517 137M578.667 137.333L579.333 137.667L578.667 137.333M511.667 138.333L512.333 138.667L511.667 138.333M576 138L577 139L576 138z"/>
<path style="fill:#bdb9cb; stroke:none;" d="M577 138L578 139L577 138M504 139L505 140L504 139z"/>
<path style="fill:#e96d71; stroke:none;" d="M505.667 139.333L506.333 139.667L505.667 139.333M574 139L575 140L574 139z"/>
<path style="fill:#bdb9cb; stroke:none;" d="M490.667 140.333L491.333 140.667L490.667 140.333z"/>
<path style="fill:#e96d71; stroke:none;" d="M492 140L493 141L492 140z"/>
<path style="fill:#bdb9cb; stroke:none;" d="M493 140L494 141L493 140z"/>
<path style="fill:#e96d71; stroke:none;" d="M494 140L494 141L500 141L494 140z"/>
<path style="fill:#bdb9cb; stroke:none;" d="M572 140L573 141L572 140M481 141L482 142L481 141z"/>
<path style="fill:#e96d71; stroke:none;" d="M482 141L482 142L486 142L482 141M487 141L488 142L487 141M569 141L570 142L569 141z"/>
<path style="fill:#bdb9cb; stroke:none;" d="M570 141L571 142L570 141z"/>
<path style="fill:#e96d71; stroke:none;" d="M471 142L471 143L475 143L471 142M567 142L568 143L567 142M436 143L436 144L451 144L436 143M452 143L452 144L457 144L452 143M564 143L565 144L564 143M434 144L435 145L434 144M562 144L563 145L562 144M433 145L434 146L433 145M559.667 145.333L560.333 145.667L559.667 145.333M557 146L558 147L557 146z"/>
<path style="fill:#bdb9cb; stroke:none;" d="M558 146L559 147L558 146z"/>
<path style="fill:#e96d71; stroke:none;" d="M430 147L431 148L430 147M554 147L555 148L554 147z"/>
<path style="fill:#bdb9cb; stroke:none;" d="M428 148L429 149L428 148z"/>
<path style="fill:#e96d71; stroke:none;" d="M429 148L430 149L429 148M552 148L553 149L552 148M427 149L428 150L427 149M549.667 149.333L550.333 149.667L549.667 149.333M426 150L427 151L426 150M546.667 150.333L547.333 150.667L546.667 150.333M424 151L425 152L424 151z"/>
<path style="fill:#bdb9cb; stroke:none;" d="M544 151L545 152L544 151z"/>
<path style="fill:#e96d71; stroke:none;" d="M423 152L424 153L423 152M541 152L542 153L541 152M421 153L422 154L421 153M538 153L539 154L538 153z"/>
<path style="fill:#bdb9cb; stroke:none;" d="M539 153L540 154L539 153z"/>
<path style="fill:#e96d71; stroke:none;" d="M420 154L421 155L420 154M535.667 154.333L536.333 154.667L535.667 154.333z"/>
<path style="fill:#bdb9cb; stroke:none;" d="M537 154L538 155L537 154z"/>
<path style="fill:#e96d71; stroke:none;" d="M418 155L419 156L418 155M532 155L533 156L532 155M417 156L418 157L417 156M529 156L530 157L529 156z"/>
<path style="fill:#bdb9cb; stroke:none;" d="M530 156L531 157L530 156M415 157L416 158L415 157z"/>
<path style="fill:#e96d71; stroke:none;" d="M526.667 157.333L527.333 157.667L526.667 157.333M414 158L415 159L414 158M523 158L524 159L523 158z"/>
<path style="fill:#bdb9cb; stroke:none;" d="M524 158L525 159L524 158z"/>
<path style="fill:#e96d71; stroke:none;" d="M412 159L413 160L412 159z"/>
<path style="fill:#bdb9cb; stroke:none;" d="M520 159L521 160L520 159z"/>
<path style="fill:#e96d71; stroke:none;" d="M411 160L412 161L411 160M516.667 160.333L517.333 160.667L516.667 160.333z"/>
<path style="fill:#bdb9cb; stroke:none;" d="M409 161L410 162L409 161z"/>
<path style="fill:#e96d71; stroke:none;" d="M513.667 161.333L514.333 161.667L513.667 161.333M408 162L409 163L408 162M510.667 162.333L511.333 162.667L510.667 162.333z"/>
<path style="fill:#bdb9cb; stroke:none;" d="M406 163L407 164L406 163z"/>
<path style="fill:#e96d71; stroke:none;" d="M407 163L408 164L407 163M506.667 163.333L507.333 163.667L506.667 163.333M405 164L406 165L405 164M503 164L504 165L503 164M499.667 165.333L500.333 165.667L499.667 165.333M402 166L403 167L402 166M495.667 166.333L496.333 166.667L495.667 166.333z"/>
<path style="fill:#bdb9cb; stroke:none;" d="M497 166L498 167L497 166M400 167L401 168L400 167M492 167L493 168L492 167z"/>
<path style="fill:#e96d71; stroke:none;" d="M399 168L400 169L399 168M488 168L489 169L488 168z"/>
<path style="fill:#bdb9cb; stroke:none;" d="M489 168L490 169L489 168M397 169L398 170L397 169z"/>
<path style="fill:#e96d71; stroke:none;" d="M398 169L399 170L398 169M484.667 169.333L485.333 169.667L484.667 169.333z"/>
<path style="fill:#bdb9cb; stroke:none;" d="M486 169L487 170L486 169M396 170L397 171L396 170z"/>
<path style="fill:#e96d71; stroke:none;" d="M479 170L479 171L482 171L479 170M395 171L396 172L395 171z"/>
<path style="fill:#bdb9cb; stroke:none;" d="M476 171L477 172L476 171z"/>
<path style="fill:#e96d71; stroke:none;" d="M393 172L394 173L393 172M471 172L472 173L471 172z"/>
<path style="fill:#bdb9cb; stroke:none;" d="M472 172L473 173L472 172z"/>
<path style="fill:#e96d71; stroke:none;" d="M466.667 173.333L467.333 173.667L466.667 173.333z"/>
<path style="fill:#bdb9cb; stroke:none;" d="M468 173L469 174L468 173M390 174L391 175L390 174z"/>
<path style="fill:#e96d71; stroke:none;" d="M462.667 174.333L463.333 174.667L462.667 174.333z"/>
<path style="fill:#bdb9cb; stroke:none;" d="M464 174L465 175L464 174z"/>
<path style="fill:#e96d71; stroke:none;" d="M389 175L390 176L389 175M456.667 175.333L457.333 175.667L456.667 175.333z"/>
<path style="fill:#bdb9cb; stroke:none;" d="M458 175L459 176L458 175M387 176L388 177L387 176z"/>
<path style="fill:#e96d71; stroke:none;" d="M452 176L453 177L452 176z"/>
<path style="fill:#bdb9cb; stroke:none;" d="M453 176L454 177L453 176z"/>
<path style="fill:#e96d71; stroke:none;" d="M386 177L387 178L386 177M446 177L446 178L449 178L446 177M440 178L440 179L443 179L440 178M383 179L384 180L383 179M434.667 179.333L435.333 179.667L434.667 179.333z"/>
<path style="fill:#bdb9cb; stroke:none;" d="M381 180L382 181L381 180z"/>
<path style="fill:#e96d71; stroke:none;" d="M382 180L383 181L382 180M428 180L428 181L431 181L428 180M380 181L381 182L380 181M420 181L420 182L424 182L420 181z"/>
<path style="fill:#bdb9cb; stroke:none;" d="M424 181L425 182L424 181z"/>
<path style="fill:#e96d71; stroke:none;" d="M413 182L413 183L417 183L413 182z"/>
<path style="fill:#bdb9cb; stroke:none;" d="M417.667 182.333L418.333 182.667L417.667 182.333z"/>
<path style="fill:#e96d71; stroke:none;" d="M377 183L378 184L377 183M404 183L405 184L404 183M406.667 183.333L407.333 183.667L406.667 183.333z"/>
<path style="fill:#bdb9cb; stroke:none;" d="M408 183L409 184L408 183z"/>
<path style="fill:#e96d71; stroke:none;" d="M375 184L376 185L375 184M395 184L395 185L399 185L395 184z"/>
<path style="fill:#bdb9cb; stroke:none;" d="M481 184L481 185L487 185L481 184z"/>
<path style="fill:#26429f; stroke:none;" d="M363 213L376 185L268 185L268 186C278.013 194.592 265.097 218.256 261.515 229C247.127 272.166 233.212 314.108 192 338.691C179.918 345.898 167.066 350.85 154 355.911C149.296 357.733 141.782 358.88 140 364C197.587 364 256.954 361.307 299.576 316.83C313.88 301.903 324.56 284.869 334.719 267C342.187 253.865 351.799 239.582 356 225L357 225C357 251.783 378.024 261.765 401 269.329C406.6 271.173 425.659 273.912 427.654 280.17C429.753 286.749 409.601 287.119 406.004 286.921C382.899 285.652 357.109 283.106 337 271L342 316C386.264 321.594 437.464 325.32 481 313.255C501.411 307.598 525.132 293.893 515.906 269C508.466 248.925 481.5 240.859 463 235.28C458.739 233.995 440.056 230.578 440.056 225C440.056 218.814 454.936 218.137 459 217.989C478.932 217.264 499.626 214.663 517 226L533 188L534 188C528.723 216.423 528.677 246.268 525.286 275C523.582 289.431 524.844 302.232 517 315L563 315L581.826 313.972L596.374 296L630 251C629.986 271.459 629.05 296.702 620 315L664 315C669.76 315 678.448 316.618 683.826 314.397C693.846 310.259 703.678 289.602 710.127 281C725.753 260.156 741.13 239.088 756.425 218C764.22 207.253 774.07 196.921 780 185L734 185C735.445 192.857 728.58 199.01 724.29 205C713.971 219.409 699.214 233.791 692 250L691 250C691.013 230.104 691.053 201.778 702 185L657 185C651.341 185 642.555 183.343 637.3 185.603C631.667 188.027 627.433 197.246 623.873 202C612.73 216.882 595.602 233.587 589 251L588 251C588.176 229.753 589.456 203.752 599 185C545.097 185 491.669 182.935 438 187.925C412.895 190.259 381.707 194.692 363 213z"/>
<path style="fill:#bdb9cb; stroke:none;" d="M526 184L526 185L532 185L526 184M539 184L540 185L539 184M569 184L570 185L569 184M597.667 184.333L598.333 184.667L597.667 184.333M659 184L660 185L659 184M689 184L690 185L689 184M735 184L736 185L735 184M749 184L750 185L749 184M778.667 184.333L779.333 184.667L778.667 184.333z"/>
<path style="fill:#e96d71; stroke:none;" d="M380 185L381 186L380 185M383 185L384 186L383 185M385 185L385 186L389 186L385 185z"/>
<path style="fill:#bdb9cb; stroke:none;" d="M389 185L390 186L389 185M464 185L464 186L467 186L464 185M599 185L600 186L599 185M268 186L269 187L268 186z"/>
<path style="fill:#e96d71; stroke:none;" d="M376 186L377 187L376 186z"/>
<path style="fill:#bdb9cb; stroke:none;" d="M377 186L377 187L380 187L377 186M453.667 186.333L454.333 186.667L453.667 186.333M701 186L702 187L701 186M734 186L735 187L734 186M779 186L780 187L779 186M270 187L271 188L270 187M438 187L438 188L442 188L438 187M597 187L598 188L597 187M271 188L272 189L271 188M431.667 188.333L432.333 188.667L431.667 188.333M533 188L533 191L534 191L533 188M596 188L597 189L596 188M425 189L426 190L425 189M698 189L699 190L698 189M777 189L778 190L777 189M272 190L273 191L272 190M595 190L596 191L595 190M632 190L633 191L632 190M734 190L735 191L734 190M776 190L777 191L776 190M412 191L412 192L415 192L412 191M407.667 192.333L408.333 192.667L407.667 192.333M733 192L734 193L733 192M272.333 193.667L272.667 194.333L272.333 193.667M531 193L532 194L531 193M774 193L775 194L774 193M593 194L594 195L593 194M629 194L630 195L629 194M371 195L372 196L371 195M395.667 195.333L396.333 195.667L395.667 195.333M530 195L531 196L530 195M731 195L732 196L731 195M392 196L393 197L392 196M695.333 196.667L695.667 197.333L695.333 196.667M730 196L731 197L730 196M627 197L628 198L627 197M771 197L772 198L771 197M271 198L272 199L271 198M387 198L388 199L387 198M532 198L532 203L533 203L532 198M384 199L385 200L384 199M592.333 199.667L592.667 200.333L592.333 199.667M695 199L696 200L695 199M728 199L729 200L728 199M624 201L625 202L624 201M367 203L368 204L367 203M725 203L726 204L725 203M373 204L374 205L373 204M621 205L622 206L621 205M765 205L766 206L765 205M525 206L526 207L525 206M723 206L724 207L723 206M268.333 207.667L268.667 208.333L268.333 207.667M365 207L366 208L365 207M722 207L723 208L722 207M524 208L525 209L524 208M694 208L694 211L695 211L694 208M721 208L722 209L721 208M763 208L764 209L763 208M364 209L365 210L364 209M618 209L619 210L618 209M720 210L721 211L720 210z"/>
<path style="fill:#f3f3f3; stroke:none;" d="M363.333 211.667L363.667 212.333L363.333 211.667z"/>
<path style="fill:#bdb9cb; stroke:none;" d="M364 211L365 212L364 211M531.333 211.667L531.667 212.333L531.333 211.667M591 211L592 212L591 211M266 213L267 214L266 213M522 213L523 214L522 213M591 213L591 216L592 216L591 213M759 213L760 214L759 213M717 214L718 215L717 214M521 215L522 216L521 215M716 215L717 216L716 215M757 216L758 217L757 216M464 217L464 218L468 218L464 217M482 217L482 218L486 218L482 217M487 217L488 218L487 217M520 217L521 218L520 217M612 217L613 218L612 217M756 217L757 218L756 217M452 218L452 219L456 219L452 218M495 218L495 219L499 219L495 218M714 218L715 219L714 218M264 219L265 220L264 219M506 219L507 220L506 219M693 219L694 220L693 219M713 219L714 220L713 219M519 220L520 221L519 220M754 220L755 221L754 220M530.333 221.667L530.667 222.333L530.333 221.667M609 221L610 222L609 221M263 223L264 224L263 223M590.333 223.667L590.667 224.333L590.333 223.667M438 224L439 225L438 224M517 224L518 225L517 224M607 224L608 225L607 224M751 224L752 225L751 224M515 225L516 226L515 225M516 226L517 227L516 226M355 227L356 228L355 227M440 227L441 228L440 227M442 228L443 229L442 228M692 228L693 229L692 228M748 228L749 229L748 228M354 229L355 230L354 229M356.333 229.667L356.667 230.333L356.333 229.667M444 229L445 230L444 229M447 230L448 231L447 230M353 231L354 232L353 231M451 231L452 232L451 231M529 231L530 232L529 231M746 231L747 232L746 231M260 232L261 233L260 232M356 232L357 233L356 232M454 232L455 233L454 232M745 232L746 233L745 232M457 233L458 234L457 233M589.333 233.667L589.667 234.333L589.333 233.667M703 233L704 234L703 233M351 235L352 236L351 235M463.667 235.333L464.333 235.667L463.667 235.333M599 235L600 236L599 235M467 236L468 237L467 236M598 236L599 237L598 236M350 237L351 238L350 237M475 239L476 240L475 239M257 240L258 241L257 240M358 240L359 241L358 240M528 240L528 243L529 243L528 240M595 240L596 241L595 240M691.333 240.667L691.667 241.333L691.333 240.667M480 241L481 242L480 241M697 241L698 242L697 241M359 242L360 243L359 242M738 242L739 243L738 242M256.333 243.667L256.667 244.333L256.333 243.667M347 243L348 244L347 243M485 243L486 244L485 243M588.333 243.667L588.667 244.333L588.333 243.667M691 243L692 244L691 243M737 243L738 244L737 243M360 244L361 245L360 244M592 244L593 245L592 244M695 244L696 245L695 244M346 245L347 246L346 245M694 245L695 246L694 245M735 246L736 247L735 246M590 247L591 248L590 247M734 247L735 248L734 247M363 248L364 249L363 248M589 248L590 249L589 248M497 249L498 250L497 249M630.333 249.667L630.667 250.333L630.333 249.667M588 250L589 251L588 250M690 250L691 251L690 250M500 251L501 252L500 251M731 251L732 252L731 251M342 252L343 253L342 252M367 252L368 253L367 252M368 253L369 254L368 253M503 253L504 254L503 253M627 253L628 254L627 253M252 254L253 255L252 254M341 254L342 255L341 254M504 254L505 255L504 254M527.333 255.667L527.667 256.333L527.333 255.667M728 255L729 256L728 255M372 256L373 257L372 256M251 258L252 259L251 258M339 258L340 259L339 258M726 258L727 259L726 258M629.333 259.667L629.667 260.333L629.333 259.667M250 260L251 261L250 260M338 260L339 261L338 260M379 260L380 261L379 260M511 261L512 262L511 261M621 261L622 262L621 261M249 262L250 263L249 262M383 262L384 263L383 262M723 262L724 263L723 262M336 263L337 264L336 263M526.333 263.667L526.667 264.333L526.333 263.667M248 265L249 266L248 265M335 265L336 266L335 265M390 265L391 266L390 265M721 265L722 266L721 265M392.667 266.333L393.333 266.667L392.667 266.333M720 266L721 267L720 266M334 267L335 268L334 267M515 267L516 268L515 267M247 268L248 269L247 268M398 268L399 269L398 268M628 268L628 272L629 272L628 268M401 269L402 270L401 269M718 269L719 270L718 269M246 270L247 271L246 270M332 270L333 271L332 270M404 270L405 271L404 270M717 270L718 271L717 270M338 271L339 272L338 271M408 271L409 272L408 271M331 272L332 273L331 272M411 272L412 273L411 272M525.333 272.667L525.667 273.333L525.333 272.667M613 272L614 273L613 272M245 273L246 274L245 273M612 273L613 274L612 273M715 273L716 274L715 273M330 274L331 275L330 274M417 274L418 275L417 274M244 275L245 276L244 275M337.333 276.667L337.667 277.333L337.333 276.667M346 276L347 277L346 276M423 276L424 277L423 276M610 276L611 277L610 276M328 277L329 278L328 277M349 277L350 278L349 277M425 277L426 278L425 277M243 278L244 279L243 278M427 278L428 279L427 278M327 279L328 280L327 279M356.667 279.333L357.333 279.667L356.667 279.333M428 279L429 280L428 279M242 280L243 281L242 280M607 280L608 281L607 280M326 281L327 282L326 281M627.333 281.667L627.667 282.333L627.333 281.667M709 281L710 282L709 281M241 282L242 283L241 282M368.667 282.333L369.333 282.667L368.667 282.333M338 283L338 286L339 286L338 283M376.667 283.333L377.333 283.667L376.667 283.333M427 283L428 284L427 283M324 284L325 285L324 284M381.667 284.333L382.333 284.667L381.667 284.333M425 284L426 285L425 284M517 284L518 285L517 284M524 284L524 288L525 288L524 284M604 284L605 285L604 284M707 284L708 285L707 284M389 285L389 286L392 286L389 285M421 285L422 286L421 285M706 285L707 286L706 285M400 286L401 287L400 286M402.667 286.333L403.333 286.667L402.667 286.333M413.667 286.333L414.333 286.667L413.667 286.333M603 286L604 287L603 286M322 287L323 288L322 287M602 287L603 288L602 287M516 288L517 289L516 288M238 289L239 290L238 289M703 289L704 290L703 289M237 291L238 292L237 291M515 291L516 292L515 291M626.333 292.667L626.667 293.333L626.333 292.667M701 292L702 293L701 292M236 293L237 294L236 293M318 293L319 294L318 293M339.333 293.667L339.667 294.333L339.333 293.667M514 293L515 294L514 293M700 293L701 294L700 293M513 294L514 295L513 294M698 296L699 297L698 296M234 297L235 298L234 297M523 297L524 298L523 297M594 298L595 299L594 298M593 299L594 300L593 299M232 300L233 301L232 300M625.333 300.667L625.667 301.333L625.333 300.667M695 300L696 301L695 300M312 301L313 302L312 301M231 302L232 303L231 302M340 302L340 307L341 307L340 302M505 302L506 303L505 302M591 302L592 303L591 302M502 304L503 305L502 304M309 305L310 306L309 305M501 305L502 306L501 305M522 305L523 306L522 305M228 306L229 307L228 306M624.333 306.667L624.667 307.333L624.333 306.667M307 307L308 308L307 307M587 307L588 308L587 307M690 307L691 308L690 307M495 308L496 309L495 308M521 308L522 309L521 308M689 308L690 309L689 308M492 309L493 310L492 309M586 309L587 310L586 309M225 310L226 311L225 310M489 310L490 311L489 310M585 310L586 311L585 310M486 311L487 312L486 311M584 311L585 312L584 311M303 312L304 313L303 312M483 312L484 313L483 312M686 312L687 313L686 312M302 313L303 314L302 313M341 313L341 316L342 316L341 313M480 313L481 314L480 313M583 313L584 314L583 313M620 313L621 314L620 313M222 314L223 315L222 314M301 314L302 315L301 314M475.667 314.333L476.333 314.667L475.667 314.333M516 314L525 316L525 315L516 314M582 314L583 315L582 314M619 314L619 316L621 316L619 314M300 315L301 316L300 315M470 315L471 316L470 315M540 315L540 316L555 316L540 315M570 315L570 316L581 316L570 315M630 315L630 316L645 316L630 315M660 315L660 316L675 316L660 315M220 316L221 317L220 316M344.667 316.333L345.333 316.667L344.667 316.333M466 316L467 317L466 316M352 317L352 318L357 318L352 317M459 317L459 318L462 318L459 317M218 318L219 319L218 318M366 318L367 319L366 318M368 318L368 319L371 319L368 318M448 318L449 319L448 318M450 318L451 319L450 318M217 319L218 320L217 319M296 319L297 320L296 319M384 319L385 320L384 319M435 319L436 320L435 319M437 319L438 320L437 319M216 320L217 321L216 320M295 320L296 321L295 320M294 321L295 322L294 321M214 322L215 323L214 322M293 322L294 323L293 322M208 327L209 328L208 327M207 328L208 329L207 328M286 328L287 329L286 328M285 329L286 330L285 329M204 330L205 331L204 330M201 332L202 333L201 332M281 332L282 333L281 332M200 333L201 334L200 333M278 334L279 335L278 334M194 337L195 338L194 337M274 337L275 338L274 337M192 338L193 339L192 338M272 338L273 339L272 338M190 339L191 340L190 339M269 340L270 341L269 340M187 341L188 342L187 341M185 342L186 343L185 342M183 343L184 344L183 343M181 344L182 345L181 344M262 344L263 345L262 344M260 345L261 346L260 345M177 346L178 347L177 346M175 347L176 348L175 347M254 348L255 349L254 348M168 350L169 351L168 350M248 350L249 351L248 350M165 351L166 352L165 351M246 351L247 352L246 351M241 353L242 354L241 353M158 354L159 355L158 354M237 354L238 355L237 354M150 357L151 358L150 357M226.667 357.333L227.333 357.667L226.667 357.333M147 358L148 359L147 358M221 358L222 359L221 358M144 359L145 360L144 359M141 360L142 361L141 360M212 360L213 361L212 360M204 361L204 362L207 362L204 361M194.667 362.333L195.333 362.667L194.667 362.333M182.667 363.333L183.333 363.667L182.667 363.333z"/>
</svg>
