<svg xmlns="http://www.w3.org/2000/svg" xmlns:xlink="http://www.w3.org/1999/xlink" version="1.1" width="300" height="300" viewBox="0 0 300 300" xml:space="preserve">
<desc>Created with Fabric.js 3.5.0</desc>
<defs>
</defs>
<rect x="0" y="0" width="100%" height="100%" fill="#ffffff"/>
<g transform="matrix(1 0 0 1 150 150)" id="545587">
<g style="" vector-effect="non-scaling-stroke">
		<g transform="matrix(1 0 0 1 -100 -100)">
<rect style="stroke: none; stroke-width: 1; stroke-dasharray: none; stroke-linecap: butt; stroke-dashoffset: 0; stroke-linejoin: miter; stroke-miterlimit: 4; is-custom-font: none; font-file-url: none; fill: rgb(255,255,255); fill-opacity: 0; fill-rule: nonzero; opacity: 1;" x="-50" y="-50" rx="0" ry="0" width="100" height="100"/>
</g>
		<g transform="matrix(3.5769 0 0 3.5769 -0.0006 -0.0006)" id="Layer_1">
<path style="stroke: none; stroke-width: 1; stroke-dasharray: none; stroke-linecap: butt; stroke-dashoffset: 0; stroke-linejoin: miter; stroke-miterlimit: 4; is-custom-font: none; font-file-url: none; fill: rgb(0,0,0); fill-rule: nonzero; opacity: 1;" vector-effect="non-scaling-stroke" transform=" translate(-26, -26)" d="M 48.636322 18.6799927 v 18 h -7.1867676 c -0.4133301 -1.159668 -1.5100098 -2 -2.8158569 -2 c -0.3178101 0 -0.6187134 0.0634766 -0.9067993 0.1561279 l -3.6211548 -6.1843262 l 3.0296021 -1.5328369 l -1.7581177 -3.4745483 l 7.5864868 -3.9644165 L 34.9236755 3.3200073 L 1.363678 20.8599854 l 9.8800049 4.539978 l 4.2399902 8.6400146 l 11.0731812 -5.786438 l 1.6390381 3.3883667 l 4.1220703 -2.0855713 l 3.8040771 6.4967651 c -0.3061523 0.4699707 -0.4883423 1.0273438 -0.4883423 1.6268921 c 0 1.6500244 1.3499756 3 3 3 c 1.3058472 0 2.4025269 -0.840332 2.8158569 -2 h 7.1867676 v 10 h 2 v -30 H 48.636322 z" stroke-linecap="round"/>
</g>
		<g transform="matrix(3.5769 0 0 3.5769 -61.6992 11.6579)" id="Layer_1">
<polygon style="stroke: none; stroke-width: 1; stroke-dasharray: none; stroke-linecap: butt; stroke-dashoffset: 0; stroke-linejoin: miter; stroke-miterlimit: 4; is-custom-font: none; font-file-url: none; fill: rgb(19,66,118); fill-rule: nonzero; opacity: 1;" vector-effect="non-scaling-stroke" points="-3.6203,-4.4675 0.7693,4.4675 3.6203,2.9777 1.011,-2.3397 "/>
</g>
</g>
</g>
<g transform="matrix(1 0 0 1 150 150)" id="128200">
<g style="" vector-effect="non-scaling-stroke">
		<g transform="matrix(1 0 0 1 -100 -100)">
<rect style="stroke: none; stroke-width: 1; stroke-dasharray: none; stroke-linecap: butt; stroke-dashoffset: 0; stroke-linejoin: miter; stroke-miterlimit: 4; is-custom-font: none; font-file-url: none; fill: rgb(255,255,255); fill-opacity: 0; fill-rule: nonzero; opacity: 1;" x="-50" y="-50" rx="0" ry="0" width="100" height="100"/>
</g>
		<g transform="matrix(3.5769 0 0 3.5769 -0.0006 -0.0006)" id="Layer_1">
<path style="stroke: none; stroke-width: 1; stroke-dasharray: none; stroke-linecap: butt; stroke-dashoffset: 0; stroke-linejoin: miter; stroke-miterlimit: 4; is-custom-font: none; font-file-url: none; fill: rgb(0,0,0); fill-rule: nonzero; opacity: 1;" vector-effect="non-scaling-stroke" transform=" translate(-26, -26)" d="M 48.636322 18.6799927 v 18 h -7.1867676 c -0.4133301 -1.159668 -1.5100098 -2 -2.8158569 -2 c -0.3178101 0 -0.6187134 0.0634766 -0.9067993 0.1561279 l -3.6211548 -6.1843262 l 3.0296021 -1.5328369 l -1.7581177 -3.4745483 l 7.5864868 -3.9644165 L 34.9236755 3.3200073 L 1.363678 20.8599854 l 9.8800049 4.539978 l 4.2399902 8.6400146 l 11.0731812 -5.786438 l 1.6390381 3.3883667 l 4.1220703 -2.0855713 l 3.8040771 6.4967651 c -0.3061523 0.4699707 -0.4883423 1.0273438 -0.4883423 1.6268921 c 0 1.6500244 1.3499756 3 3 3 c 1.3058472 0 2.4025269 -0.840332 2.8158569 -2 h 7.1867676 v 10 h 2 v -30 H 48.636322 z" stroke-linecap="round"/>
</g>
		<g transform="matrix(3.5769 0 0 3.5769 -61.6992 11.6579)" id="Layer_1">
<polygon style="stroke: none; stroke-width: 1; stroke-dasharray: none; stroke-linecap: butt; stroke-dashoffset: 0; stroke-linejoin: miter; stroke-miterlimit: 4; is-custom-font: none; font-file-url: none; fill: rgb(19,66,118); fill-rule: nonzero; opacity: 1;" vector-effect="non-scaling-stroke" points="-3.6203,-4.4675 0.7693,4.4675 3.6203,2.9777 1.011,-2.3397 "/>
</g>
</g>
</g>
<g transform="matrix(1 0 0 1 150 150)" id="433934">
<g style="" vector-effect="non-scaling-stroke">
		<g transform="matrix(1 0 0 1 -100 -100)">
<rect style="stroke: none; stroke-width: 1; stroke-dasharray: none; stroke-linecap: butt; stroke-dashoffset: 0; stroke-linejoin: miter; stroke-miterlimit: 4; is-custom-font: none; font-file-url: none; fill: rgb(255,255,255); fill-opacity: 0; fill-rule: nonzero; opacity: 1;" x="-50" y="-50" rx="0" ry="0" width="100" height="100"/>
</g>
		<g transform="matrix(3.5769 0 0 3.5769 -0.0006 -0.0006)" id="Layer_1">
<path style="stroke: none; stroke-width: 1; stroke-dasharray: none; stroke-linecap: butt; stroke-dashoffset: 0; stroke-linejoin: miter; stroke-miterlimit: 4; is-custom-font: none; font-file-url: none; fill: rgb(0,0,0); fill-rule: nonzero; opacity: 1;" vector-effect="non-scaling-stroke" transform=" translate(-26, -26)" d="M 48.636322 18.6799927 v 18 h -7.1867676 c -0.4133301 -1.159668 -1.5100098 -2 -2.8158569 -2 c -0.3178101 0 -0.6187134 0.0634766 -0.9067993 0.1561279 l -3.6211548 -6.1843262 l 3.0296021 -1.5328369 l -1.7581177 -3.4745483 l 7.5864868 -3.9644165 L 34.9236755 3.3200073 L 1.363678 20.8599854 l 9.8800049 4.539978 l 4.2399902 8.6400146 l 11.0731812 -5.786438 l 1.6390381 3.3883667 l 4.1220703 -2.0855713 l 3.8040771 6.4967651 c -0.3061523 0.4699707 -0.4883423 1.0273438 -0.4883423 1.6268921 c 0 1.6500244 1.3499756 3 3 3 c 1.3058472 0 2.4025269 -0.840332 2.8158569 -2 h 7.1867676 v 10 h 2 v -30 H 48.636322 z" stroke-linecap="round"/>
</g>
		<g transform="matrix(3.5769 0 0 3.5769 -61.6992 11.6579)" id="Layer_1">
<polygon style="stroke: none; stroke-width: 1; stroke-dasharray: none; stroke-linecap: butt; stroke-dashoffset: 0; stroke-linejoin: miter; stroke-miterlimit: 4; is-custom-font: none; font-file-url: none; fill: rgb(19,66,118); fill-rule: nonzero; opacity: 1;" vector-effect="non-scaling-stroke" points="-3.6203,-4.4675 0.7693,4.4675 3.6203,2.9777 1.011,-2.3397 "/>
</g>
</g>
</g>
<g transform="matrix(0.1563 0 0 0.1563 234.6731 90.0064)" id="243868">
<path style="stroke: none; stroke-width: 1; stroke-dasharray: none; stroke-linecap: butt; stroke-dashoffset: 0; stroke-linejoin: miter; stroke-miterlimit: 4; is-custom-font: none; font-file-url: none; fill: rgb(78,176,120); fill-rule: nonzero; opacity: 1;" vector-effect="non-scaling-stroke" transform=" translate(-128, -128)" d="M 109.083 183.336 c -1.521 0 -3 -0.542 -4.166 -1.541 l -37.83 -32.426 c -2.683 -2.301 -2.994 -6.341 -0.694 -9.025 c 2.3 -2.682 6.341 -2.992 9.025 -0.693 l 32.732 28.058 l 71.542 -91.981 c 2.171 -2.789 6.188 -3.295 8.981 -1.122 c 2.789 2.17 3.292 6.191 1.122 8.981 l -75.663 97.279 c -1.075 1.382 -2.667 2.263 -4.41 2.438 C 109.511 183.325 109.297 183.336 109.083 183.336 z M 256 128 C 256 57.42 198.58 0 128 0 S 0 57.42 0 128 c 0 70.58 57.42 128 128 128 S 256 198.58 256 128 z M 243.2 128 c 0 63.521 -51.679 115.2 -115.2 115.2 c -63.522 0 -115.2 -51.679 -115.2 -115.2 C 12.8 64.478 64.478 12.8 128 12.8 C 191.521 12.8 243.2 64.478 243.2 128 z" stroke-linecap="round"/>
</g>
</svg>