<svg xmlns="http://www.w3.org/2000/svg" xmlns:xlink="http://www.w3.org/1999/xlink" version="1.1" width="300" height="300" viewBox="0 0 300 300" xml:space="preserve">
<desc>Created with Fabric.js 3.5.0</desc>
<defs>
</defs>
<rect x="0" y="0" width="100%" height="100%" fill="#ffffff"/>
<g transform="matrix(1 0 0 1 150 150)" id="967242">
<g style="" vector-effect="non-scaling-stroke">
		<g transform="matrix(1 0 0 1 -100 -100)">
<rect style="stroke: none; stroke-width: 1; stroke-dasharray: none; stroke-linecap: butt; stroke-dashoffset: 0; stroke-linejoin: miter; stroke-miterlimit: 4; is-custom-font: none; font-file-url: none; fill: rgb(255,255,255); fill-opacity: 0; fill-rule: nonzero; opacity: 1;" x="-50" y="-50" rx="0" ry="0" width="100" height="100"/>
</g>
		<g transform="matrix(3.5769 0 0 3.5769 -0.0006 -0.0006)" id="Layer_1">
<path style="stroke: none; stroke-width: 1; stroke-dasharray: none; stroke-linecap: butt; stroke-dashoffset: 0; stroke-linejoin: miter; stroke-miterlimit: 4; is-custom-font: none; font-file-url: none; fill: rgb(0,0,0); fill-rule: nonzero; opacity: 1;" vector-effect="non-scaling-stroke" transform=" translate(-26, -26)" d="M 48.636322 18.6799927 v 18 h -7.1867676 c -0.4133301 -1.159668 -1.5100098 -2 -2.8158569 -2 c -0.3178101 0 -0.6187134 0.0634766 -0.9067993 0.1561279 l -3.6211548 -6.1843262 l 3.0296021 -1.5328369 l -1.7581177 -3.4745483 l 7.5864868 -3.9644165 L 34.9236755 3.3200073 L 1.363678 20.8599854 l 9.8800049 4.539978 l 4.2399902 8.6400146 l 11.0731812 -5.786438 l 1.6390381 3.3883667 l 4.1220703 -2.0855713 l 3.8040771 6.4967651 c -0.3061523 0.4699707 -0.4883423 1.0273438 -0.4883423 1.6268921 c 0 1.6500244 1.3499756 3 3 3 c 1.3058472 0 2.4025269 -0.840332 2.8158569 -2 h 7.1867676 v 10 h 2 v -30 H 48.636322 z" stroke-linecap="round"/>
</g>
		<g transform="matrix(3.5769 0 0 3.5769 -61.6992 11.6579)" id="Layer_1">
<polygon style="stroke: none; stroke-width: 1; stroke-dasharray: none; stroke-linecap: butt; stroke-dashoffset: 0; stroke-linejoin: miter; stroke-miterlimit: 4; is-custom-font: none; font-file-url: none; fill: rgb(19,66,118); fill-rule: nonzero; opacity: 1;" vector-effect="non-scaling-stroke" points="-3.6203,-4.4675 0.7693,4.4675 3.6203,2.9777 1.011,-2.3397 "/>
</g>
</g>
</g>
<g transform="matrix(1 0 0 1 150 150)" id="38003">
<g style="" vector-effect="non-scaling-stroke">
		<g transform="matrix(1 0 0 1 -100 -100)">
<rect style="stroke: none; stroke-width: 1; stroke-dasharray: none; stroke-linecap: butt; stroke-dashoffset: 0; stroke-linejoin: miter; stroke-miterlimit: 4; is-custom-font: none; font-file-url: none; fill: rgb(255,255,255); fill-opacity: 0; fill-rule: nonzero; opacity: 1;" x="-50" y="-50" rx="0" ry="0" width="100" height="100"/>
</g>
		<g transform="matrix(3.5769 0 0 3.5769 -0.0006 -0.0006)" id="Layer_1">
<path style="stroke: none; stroke-width: 1; stroke-dasharray: none; stroke-linecap: butt; stroke-dashoffset: 0; stroke-linejoin: miter; stroke-miterlimit: 4; is-custom-font: none; font-file-url: none; fill: rgb(0,0,0); fill-rule: nonzero; opacity: 1;" vector-effect="non-scaling-stroke" transform=" translate(-26, -26)" d="M 48.636322 18.6799927 v 18 h -7.1867676 c -0.4133301 -1.159668 -1.5100098 -2 -2.8158569 -2 c -0.3178101 0 -0.6187134 0.0634766 -0.9067993 0.1561279 l -3.6211548 -6.1843262 l 3.0296021 -1.5328369 l -1.7581177 -3.4745483 l 7.5864868 -3.9644165 L 34.9236755 3.3200073 L 1.363678 20.8599854 l 9.8800049 4.539978 l 4.2399902 8.6400146 l 11.0731812 -5.786438 l 1.6390381 3.3883667 l 4.1220703 -2.0855713 l 3.8040771 6.4967651 c -0.3061523 0.4699707 -0.4883423 1.0273438 -0.4883423 1.6268921 c 0 1.6500244 1.3499756 3 3 3 c 1.3058472 0 2.4025269 -0.840332 2.8158569 -2 h 7.1867676 v 10 h 2 v -30 H 48.636322 z" stroke-linecap="round"/>
</g>
		<g transform="matrix(3.5769 0 0 3.5769 -61.6992 11.6579)" id="Layer_1">
<polygon style="stroke: none; stroke-width: 1; stroke-dasharray: none; stroke-linecap: butt; stroke-dashoffset: 0; stroke-linejoin: miter; stroke-miterlimit: 4; is-custom-font: none; font-file-url: none; fill: rgb(19,66,118); fill-rule: nonzero; opacity: 1;" vector-effect="non-scaling-stroke" points="-3.6203,-4.4675 0.7693,4.4675 3.6203,2.9777 1.011,-2.3397 "/>
</g>
</g>
</g>
<g transform="matrix(2.0243 0 0 2.0243 234.2083 89.0416)" id="855840">
<g style="" vector-effect="non-scaling-stroke">
		<g transform="matrix(1 0 0 1 0 0)" id="Icons">
<path style="stroke: none; stroke-width: 1; stroke-dasharray: none; stroke-linecap: butt; stroke-dashoffset: 0; stroke-linejoin: miter; stroke-miterlimit: 4; is-custom-font: none; font-file-url: none; fill: rgb(243,36,36); fill-rule: nonzero; opacity: 1;" transform=" translate(-12, -12)" d="M 12 0 A 12 12 0 1 0 24 12 A 12.013 12.013 0 0 0 12 0 Z m 0 22 A 10 10 0 1 1 22 12 A 10.011 10.011 0 0 1 12 22 Z" stroke-linecap="round"/>
</g>
		<g transform="matrix(1 0 0 1 -0.0063 0)" id="Icons">
<path style="stroke: none; stroke-width: 1; stroke-dasharray: none; stroke-linecap: butt; stroke-dashoffset: 0; stroke-linejoin: miter; stroke-miterlimit: 4; is-custom-font: none; font-file-url: none; fill: rgb(243,36,36); fill-rule: nonzero; opacity: 1;" transform=" translate(-11.9937, -12)" d="M 16.707 7.293 a 1 1 0 0 0 -1.414 0 L 12 10.586 L 8.707 7.293 A 1 1 0 1 0 7.293 8.707 L 10.586 12 L 7.293 15.293 a 1 1 0 1 0 1.414 1.414 L 12 13.414 l 3.293 3.293 a 1 1 0 0 0 1.414 -1.414 L 13.414 12 l 3.293 -3.293 A 1 1 0 0 0 16.707 7.293 Z" stroke-linecap="round"/>
</g>
</g>
</g>
</svg>