<?xml version="1.0" encoding="utf-8"?>
<!-- Svg Vector Icons : http://www.onlinewebfonts.com/icon -->
<!DOCTYPE svg PUBLIC "-//W3C//DTD SVG 1.1//EN" "http://www.w3.org/Graphics/SVG/1.1/DTD/svg11.dtd">
<svg version="1.1" xmlns="http://www.w3.org/2000/svg" xmlns:xlink="http://www.w3.org/1999/xlink" x="0px" y="0px" viewBox="0 0 1000 1000" enable-background="new 0 0 1000 1000" xml:space="preserve">
<metadata> Svg Vector Icons : http://www.onlinewebfonts.com/icon </metadata>
<g><g transform="translate(0.000000,511.000000) scale(0.100000,-0.100000)"><path d="M3641.7,4265.6c-650.2-116.6-1096-511.2-1257.5-1110.3c-34.8-126.8-45-237.2-51.1-582.7c-10.2-388.5-14.3-425.3-49.1-445.8c-145.2-77.7-171.8-531.6-51.1-877.2c61.3-179.9,184-388.5,306.7-525.5c67.5-73.6,110.4-151.3,155.4-278.1c186.1-515.3,584.8-901.7,1055.1-1026.5c648.2-171.7,1361.8,286.3,1631.7,1051c32.7,92,83.8,184,126.8,233.1c120.6,130.9,253.5,355.8,319,531.6c53.2,141.1,65.4,206.5,73.6,402.8c10.2,267.9-14.3,386.5-92,466.2c-51.1,51.1-53.2,59.3-57.2,349.6c-6.1,445.8-81.8,736.1-239.2,914c-42.9,49.1-81.8,118.6-96.1,179.9c-77.7,312.8-290.4,505-717.7,644.1C4392.1,4294.3,3958.7,4322.9,3641.7,4265.6z"/><path d="M7254.7,376.6c-1145-202.4-1958.8-1282-1840.2-2435.2c98.1-940.6,750.4-1707.3,1666.4-1958.8c188.1-51.1,235.1-57.3,572.5-57.3c335.3,0,386.5,6.2,572.5,55.2c815.8,218.8,1441.5,873.1,1629.6,1699.2c55.2,241.3,59.3,705.4,10.2,926.3C9761.5-932,9557.1-557.8,9238.1-240.9C8810.8,184.4,8242.3,415.5,7633,409.3C7520.5,409.3,7350.8,393,7254.7,376.6z M8093.1-222.5c331.3-92,635.9-288.3,850.6-548c122.7-147.2,296.5-482.5,335.3-648.2c69.5-300.6,63.4-642-22.5-909.9c-45-143.1-159.5-388.5-180-388.5c-6.1,0-531.6,519.4-1163.4,1151.2L6759.9-412.6l151.3,73.6c153.3,73.6,312.8,126.8,482.5,157.5C7549.2-153,7921.3-173.4,8093.1-222.5z M7381.5-2117.9c627.7-627.7,1140.9-1147.1,1140.9-1153.2c0-20.4-276-141.1-423.3-184c-75.7-22.5-229-45-337.4-53.2c-783.1-49.1-1478.3,435.5-1717.5,1200.2c-40.9,132.9-47,196.3-47,460.1c0,231.1,8.2,339.4,36.8,439.6c38.9,147.2,165.6,429.4,192.2,429.4C6234.4-979,6755.8-1492.3,7381.5-2117.9z"/><path d="M2459.9-175.5C1470.3-576.2,1161.5-731.6,889.6-964.7c-404.9-347.6-732-1098-783.1-1803.4c-12.3-175.8-10.2-186.1,34.8-227c69.5-63.4,388.5-175.8,734-261.7c486.6-118.6,1020.3-196.3,1830-261.7c447.8-36.8,2238.9-36.8,2678.6,0c179.9,16.4,329.2,30.7,333.3,34.8c4.1,2-47,77.7-110.4,165.6c-220.8,308.8-384.4,697.3-449.8,1071.4c-45,263.8-30.7,781.1,28.6,1001.9c87.9,333.3,235.1,638,431.4,899.7c45,61.3,83.8,116.6,83.8,122.7c0,6.1-75.7,40.9-167.7,75.7l-169.7,67.5l-49.1-67.5c-233.1-302.6-523.5-513.2-860.8-627.7c-186.1-61.3-531.6-77.7-725.9-32.7c-316.9,73.6-666.6,298.5-907.9,584.8c-61.3,73.6-116.6,135-122.7,137C2690.9-85.5,2584.6-124.4,2459.9-175.5z"/></g></g>
</svg>