<svg xmlns="http://www.w3.org/2000/svg" xmlns:xlink="http://www.w3.org/1999/xlink" version="1.1" width="300" height="300" viewBox="0 0 300 300" xml:space="preserve">
<desc>Created with Fabric.js 3.5.0</desc>
<defs>
</defs>
<rect x="0" y="0" width="100%" height="100%" fill="rgba(255,255,255,0)"/>
<g transform="matrix(12.0351 0 0 12.0351 150.0004 145.4701)" id="402830">
<path style="stroke: none; stroke-width: 1; stroke-dasharray: none; stroke-linecap: butt; stroke-dashoffset: 0; stroke-linejoin: miter; stroke-miterlimit: 4; is-custom-font: none; font-file-url: none; fill: rgb(0,0,0); fill-rule: nonzero; opacity: 1;" vector-effect="non-scaling-stroke" transform=" translate(-10, -9.0001)" d="m 12.8 1.613 l 6.701 11.161 c 0.963 1.603 0.49 3.712 -1.057 4.71 a 3.213 3.213 0 0 1 -1.743 0.516 H 3.298 C 1.477 18 0 16.47 0 14.581 c 0 -0.639 0.173 -1.264 0.498 -1.807 L 7.2 1.613 C 8.162 0.01 10.196 -0.481 11.743 0.517 c 0.428 0.276 0.79 0.651 1.057 1.096 z M 10 14 a 1 1 0 1 0 0 -2 a 1 1 0 0 0 0 2 z m 0 -9 a 1 1 0 0 0 -1 1 v 4 a 1 1 0 0 0 2 0 V 6 a 1 1 0 0 0 -1 -1 z" stroke-linecap="round"/>
</g>
</svg>